<svg version="1.1" xmlns="http://www.w3.org/2000/svg" xmlns:xlink="http://www.w3.org/1999/xlink" x="0px" y="0px"
     viewBox="0 0 311.81 127.56" style="enable-background:new 0 0 311.81 127.56;" xml:space="preserve">
<style type="text/css">
	.st0{fill:#00965E;}
	.st1{fill:#FFFFFF;}
	.st2{fill:#0098DB;}
	.st3{fill:#DC0068;}
	.st4{fill:#F5C400;}
	.st5{fill:#EC6622;}
</style>
<g id="fond">
</g>
<g id="logo">
	<g>
		<g>
			<g>
				<g id="basePicoSocial_12_">
					<path class="st0" d="M166.82,104.79c0,1.31,1.06,2.37,2.37,2.37h26.23c1.31,0,2.37-1.06,2.37-2.37V78.56
						c0-1.31-1.06-2.37-2.37-2.37h-26.23c-1.31,0-2.37,1.06-2.37,2.37V104.79z"/>
				</g>
        <g id="PictoSocialBlanc_12_">
					<path class="st1" d="M190.67,98.48l-3.2-3.46c0.14-0.45,0.21-0.82,0.29-1.25c0.14-0.72,0.19-1.89,0.06-2.59
						c-0.04-0.21-0.13-0.54-0.3-0.66c-0.16-0.11-0.33-0.1-0.44-0.06c-0.14,0.05-0.25,0.17-0.28,0.35c-0.05,0.3-0.1,0.92-0.13,1.12
						c-0.01,0.09-0.02,0.17-0.03,0.21c-0.04,0.27-0.1,0.53-0.19,0.88c-0.07,0.25-0.1,0.37-0.22,0.66l-2.9-3.14
						c0.72-0.59,1.22-1.06,1.64-1.58c0.78-0.96,1.07-1.64,1.08-2.49c0.01-0.55-0.07-0.94-0.27-1.4c-0.09-0.2-0.28-0.61-0.71-1
						c-0.4-0.36-0.84-0.6-1.27-0.76c-0.44-0.17-0.83-0.28-1.55-0.3c-0.24-0.01-0.5,0-0.81,0.03c-1.09,0.12-2.04,0.59-2.69,1.33
						c-0.58,0.66-0.74,1.59-0.75,2.17c-0.01,0.77,0.26,1.65,0.74,2.34c0.31,0.45,0.61,0.77,1.12,1.29l0.26,0.27
						c-1.11,0.81-1.69,1.31-2.39,2.05c-0.8,0.84-1.53,1.72-1.6,3.23c-0.05,1.07,0.49,2.23,1.4,3.01c0.87,0.75,2.19,1.17,3.72,1.17
						c0.23,0,0.47-0.01,0.7-0.03c1.63-0.14,2.48-0.68,3.03-1.13c0.46-0.37,0.83-0.71,1.39-1.54l1.92,2.13l0.02,0.02h2.25
						c0.01,0,0.32-0.02,0.4-0.3C191.03,98.81,190.7,98.51,190.67,98.48z M182.03,89.22c-0.54-0.57-1.09-1.23-1.33-1.57
						c-0.18-0.25-0.42-0.69-0.48-1.11c-0.02-0.13-0.06-0.6,0.26-1.02c0.18-0.23,0.43-0.48,0.99-0.65c0.19-0.06,0.44-0.09,0.7-0.09
						c0.28,0,0.56,0.04,0.78,0.11c0.45,0.14,0.77,0.41,1,0.85c0.31,0.61,0.17,1.3-0.41,1.98C182.98,88.37,182.54,88.8,182.03,89.22z
						 M179.7,93.44c0.38-0.47,0.92-0.94,1.74-1.54l3.67,4.08c-0.31,0.41-0.62,0.78-1.19,1.1c-0.58,0.33-1.17,0.49-2.01,0.53
						c-0.07,0-0.14,0-0.2,0c-0.7,0-1.3-0.19-1.78-0.56c-0.58-0.45-0.86-1.05-0.89-1.89C179.01,94.43,179.23,94.02,179.7,93.44z"/>
				</g>
			</g>
      <g>
				<g id="basePicoGestion_8_">
					<path class="st2" d="M57.18,104.79c0,1.31,1.06,2.37,2.37,2.37h26.23c1.31,0,2.37-1.06,2.37-2.37V78.56
						c0-1.31-1.06-2.37-2.37-2.37H59.55c-1.31,0-2.37,1.06-2.37,2.37V104.79z"/>
				</g>
        <g id="PictoGestionBlanc_8_">
					<path class="st1" d="M65.76,83.63c1.34,0,13.31,0,13.31,0s0.17,3.6,0.17,3.68c-0.01,0.14-0.07,0.3-0.27,0.35
						c-0.15,0.04-0.35-0.05-0.43-0.34c-0.08-0.27-0.02-0.43-0.26-0.93c-0.11-0.22-0.4-0.55-0.99-0.8c-0.61-0.27-1.23-0.29-1.7-0.29
						s-5.47,0-5.47,0c1.26,1.82,2.65,3.97,3.57,5.31c0.33,0.49,0.39,0.61-0.11,1.26c-0.72,0.93-3.98,5.01-3.98,5.01s5.14,0,5.95,0
						c0.81,0,1.6-0.05,2-0.31c0.53-0.34,0.8-0.97,0.88-1.25c0.07-0.28,0.2-0.54,0.52-0.53c0.25,0.01,0.3,0.26,0.3,0.44
						c0,0.08-0.44,4.25-0.44,4.25s-11.02,0-13.01,0c-0.18,0-0.32,0-0.37-0.12c-0.07-0.18,0.01-0.32,0.15-0.48
						c0.84-1.02,3.38-4.08,4.68-5.84c0.51-0.69,0.73-0.95,0.39-1.43c-0.33-0.47-4.82-7.03-5.04-7.36c-0.16-0.24-0.22-0.31-0.15-0.47
						C65.5,83.67,65.65,83.63,65.76,83.63z"/>
				</g>
			</g>
      <g>
				<g id="basePicoIngénieur_8_">
					<path class="st3" d="M93.73,104.79c0,1.31,1.06,2.37,2.37,2.37h26.23c1.31,0,2.37-1.06,2.37-2.37V78.56
						c0-1.31-1.06-2.37-2.37-2.37H96.09c-1.31,0-2.37,1.06-2.37,2.37V104.79z"/>
				</g>
        <g id="PictoIngénieurBlanc_8_">
					<path class="st1" d="M110.91,86.04h-3.58c-0.18,2.07-0.35,3.84-0.51,5.16c-0.17,1.32-0.32,2.33-0.47,3.28
						c-0.16,0.95-0.32,1.82-0.48,2.6c-0.14,0.61-0.33,1.09-0.59,1.43c-0.26,0.35-0.64,0.58-1.14,0.72c-0.42,0.1-0.83,0.02-1.24-0.25
						c-0.4-0.27-0.65-0.59-0.73-0.96c-0.06-0.28-0.08-0.51-0.05-0.7c0.03-0.19,0.08-0.37,0.17-0.53c0.08-0.16,0.17-0.31,0.28-0.45
						c0.1-0.13,0.21-0.27,0.32-0.4c0.04-0.04,0.21-0.25,0.54-0.63c0.33-0.38,0.57-0.73,0.73-1.05c0.16-0.31,0.52-1,0.7-1.86
						c0.18-0.86,0.55-3.8,0.54-6.36c-0.27,0-1.5,0-1.5,0c-0.42,0-0.84,0.14-1.23,0.34c-0.38,0.2-0.71,0.54-0.87,0.73
						c-0.16,0.2-0.57,0.86-0.67,0.99c-0.1,0.13-0.29,0.42-0.44,0.38c-0.16-0.05-0.13-0.23-0.1-0.38c0.03-0.14,0.32-0.89,0.54-1.44
						c0.22-0.56,0.52-1.11,0.9-1.63c0.29-0.45,0.7-0.76,1.2-1.08c0.51-0.33,1.09-0.49,1.77-0.49c0,0,10.76,0,10.95,0
						c0.19,0,1.22,0.08,1.22,1.28c0,1.2-1.09,1.3-1.22,1.3c-0.13,0-3.11,0-3.11,0c-0.26,2.46-0.39,5.01-0.39,7.5
						c0,0.45,0.08,0.9,0.23,1.33c0.16,0.43,0.35,0.76,0.57,0.99c0.29,0.27,0.64,0.44,1.06,0.52c0.42,0.08,0.85-0.05,1.28-0.39
						c0.24-0.19,0.41-0.4,0.52-0.63c0.11-0.24,0.17-0.47,0.21-0.68c0.03-0.22,0.08-0.52,0.09-0.6c0.01-0.07-0.01-0.34,0.3-0.37
						c0.31-0.02,0.34,0.25,0.37,0.54c0.03,0.3-0.13,1.4-0.38,2.08c-0.25,0.69-0.55,1.24-0.89,1.65c-0.34,0.42-0.68,0.72-1,0.9
						c-0.37,0.23-0.81,0.36-1.3,0.41c-0.5,0.05-0.96-0.07-1.36-0.35c-0.68-0.5-1.2-1.27-1.55-2.33c-0.2-0.62-0.31-1.44-0.33-2.45
						c-0.03-1.01,0-2.01,0.1-2.98L110.91,86.04z"/>
				</g>
			</g>
      <g>
				<g id="basePicoSanté_-_copie_3_10_">
					<path class="st4" d="M130.27,104.79c0,1.31,1.06,2.37,2.37,2.37h26.23c1.31,0,2.37-1.06,2.37-2.37V78.56
						c0-1.31-1.06-2.37-2.37-2.37h-26.23c-1.31,0-2.37,1.06-2.37,2.37V104.79z"/>
				</g>
        <g id="PictoSantéCouleur_-_copie_3_10_">
					<g>
						<path class="st1" d="M137.27,90.15c-0.19-0.08-0.19-0.45,0.01-1.01c0.26-0.68,0.53-1.16,0.91-1.63
							c0.35-0.45,1.13-1.09,1.7-1.33c0.57-0.25,1.19-0.33,1.97-0.35c0.98-0.02,2.43,0.47,4.09,1.15c1.67,0.67,3.21,0.99,3.92,0.98
							c1.05-0.01,2.12-0.22,3.03-0.85c0.55-0.37,0.77-0.63,1.02-1.14c0.08-0.16,0.18-0.19,0.29-0.13c0.18,0.1,0.17,0.34,0.13,0.66
							c-0.25,1.69-1,2.6-1.77,3.12c-0.4,0.26-0.99,0.63-1.87,0.73c-0.88,0.1-2.41-0.17-2.9-0.3c-0.95-0.25-2.11-0.78-2.8-1.05
							c-0.69-0.27-1.21-0.53-1.57-0.63c-0.28-0.07-1.37-0.46-2.38-0.42c-0.55,0.02-1.5,0.22-2.21,0.67
							c-0.59,0.38-0.98,0.85-1.2,1.27C137.55,90.07,137.41,90.21,137.27,90.15z"/>
            <path class="st1" d="M137.27,97.32c-0.19-0.09-0.19-0.45,0.02-1.01c0.25-0.68,0.52-1.16,0.91-1.63
							c0.35-0.45,1.13-1.09,1.7-1.33c0.57-0.25,1.19-0.33,1.97-0.35c0.98-0.02,2.43,0.47,4.09,1.15c1.67,0.67,3.2,0.99,3.92,0.98
							c1.05-0.01,2.12-0.22,3.03-0.85c0.55-0.37,0.77-0.63,1.02-1.14c0.08-0.16,0.18-0.19,0.29-0.13c0.18,0.1,0.17,0.34,0.13,0.66
							c-0.25,1.69-1,2.6-1.77,3.12c-0.4,0.26-0.99,0.63-1.87,0.73c-0.88,0.1-2.41-0.17-2.9-0.3c-0.95-0.25-2.11-0.78-2.8-1.05
							c-0.69-0.27-1.21-0.53-1.57-0.63c-0.28-0.07-1.37-0.46-2.38-0.42c-0.55,0.02-1.5,0.22-2.21,0.67
							c-0.59,0.38-0.98,0.85-1.2,1.27C137.55,97.24,137.41,97.38,137.27,97.32z"/>
					</g>
				</g>
			</g>
      <g>
				<g>
					<path class="st5" d="M20.54,104.78c0,1.31,1.06,2.37,2.36,2.37h26.23c1.31,0,2.37-1.06,2.37-2.37V78.56
						c0-1.31-1.06-2.37-2.37-2.37H22.91c-1.31,0-2.36,1.06-2.36,2.37V104.78z"/>
				</g>
        <circle class="st1" cx="30.92" cy="86.56" r="3.05"/>
        <circle class="st1" cx="30.92" cy="95.93" r="3.05"/>
			</g>
		</g>
    <g>
			<g>
				<path d="M206.85,20.38c0-2.83-2.22-5.05-5.04-5.05c-3.34,0-4.72,2.85-5.72,4.93c0.47-1-0.07,0.16-14.93,31.78
					c-0.81,1.67-1.16,2.4-1.16,3.84c0,2.9,2.19,5.16,4.99,5.16c3.28,0,4.56-2.55,5.5-4.42l15.5-32.88
					C206.43,22.81,206.85,21.78,206.85,20.38z M204.44,23.01c-15.5,32.84-15.05,31.73-15.5,32.84c-0.85,1.7-1.73,3.47-3.95,3.47
					c-1.83,0-3.27-1.52-3.27-3.45c0-1.04,0.22-1.5,0.95-3.01c0.49-1.06,0.03-0.07,14.88-31.7c1.02-2.1,2-4.12,4.25-4.12
					c1.9,0,3.33,1.44,3.33,3.33C205.13,21.43,204.8,22.23,204.44,23.01z"/>
        <path d="M216.02,15.33c-3.34,0-4.72,2.85-5.72,4.93c0.48-0.98-0.08,0.16-14.93,31.78c-0.8,1.68-1.16,2.4-1.16,3.84
					c0,2.9,2.2,5.16,4.99,5.16c3.29,0,4.57-2.55,5.5-4.43l15.51-32.87c0.42-0.89,0.86-1.96,0.86-3.36
					C221.06,17.56,218.85,15.33,216.02,15.33z M218.65,23.01c-15.49,32.84-14.93,32.05-15.5,32.84c-0.85,1.71-1.73,3.47-3.95,3.47
					c-1.84,0-3.27-1.52-3.27-3.45c0-1.04,0.22-1.5,0.95-3.01c0.48-1.07,0.03-0.07,14.89-31.7c1.02-2.1,1.99-4.12,4.25-4.12
					c1.89,0,3.34,1.44,3.34,3.33C219.35,21.43,219.02,22.23,218.65,23.01z"/>
        <path d="M230.33,35.01c0.28,0.68,0.64,1.24,1.58,1.24c0.94,0,1.3-0.56,1.58-1.24l4.67-11.87c0.1-0.28,0.15-0.49,0.15-0.79
					c0-0.9-0.78-1.54-1.64-1.54c-0.72,0-1.17,0.47-1.45,1.04l-3.31,8.86l-3.3-8.86c-0.28-0.58-0.73-1.04-1.46-1.04
					c-0.85,0-1.64,0.64-1.64,1.54c0,0.3,0.04,0.51,0.15,0.79L230.33,35.01z"/>
        <path d="M236.56,34.89c0,0.85,0.72,1.49,1.58,1.49c0.87,0,1.31-0.47,1.53-1.13l0.64-1.98h5.92l0.64,2
					c0.22,0.64,0.66,1.11,1.56,1.11c0.79,0,1.47-0.58,1.47-1.4c0-0.15-0.04-0.45-0.17-0.79l-4.18-11.59
					c-0.36-1.02-1.15-1.77-2.28-1.77c-1.08,0-1.91,0.79-2.27,1.77l-4.29,11.59C236.66,34.29,236.56,34.54,236.56,34.89z
					 M243.25,24.15h0.04l1.98,6.18h-4.05L243.25,24.15z"/>
        <path d="M252.98,36.12h5.33c0.93,0,1.49-0.7,1.54-1.41c0.02-0.72-0.45-1.53-1.54-1.53h-3.79V22.49c0-1.07-0.68-1.66-1.6-1.66
					c-0.91,0-1.6,0.6-1.6,1.66v11.89C251.32,35.44,251.94,36.12,252.98,36.12z"/>
        <path d="M262.12,36.38c0.87,0,1.33-0.47,1.54-1.13l0.64-1.98h5.92l0.65,2c0.21,0.64,0.66,1.11,1.55,1.11
					c0.79,0,1.47-0.58,1.47-1.4c0-0.15-0.04-0.45-0.17-0.79l-4.18-11.59c-0.37-1.02-1.15-1.77-2.28-1.77
					c-1.09,0-1.91,0.79-2.28,1.77l-4.28,11.59c-0.04,0.11-0.15,0.36-0.15,0.71C260.55,35.74,261.27,36.38,262.12,36.38z
					 M267.24,24.15h0.05l1.98,6.18h-4.05L267.24,24.15z"/>
        <path d="M278.51,34.59v-12.1c0-1.07-0.68-1.66-1.6-1.66c-0.91,0-1.6,0.6-1.6,1.66v12.1c0,1.07,0.69,1.66,1.6,1.66
					C277.83,36.25,278.51,35.66,278.51,34.59z"/>
        <path d="M285.54,33.43c-1.38,0-2.58-0.83-3.57-0.83c-0.88,0-1.43,0.68-1.43,1.51c0,2,3.53,2.39,5.17,2.39
					c2.94,0,5.46-1.9,5.46-4.94c0-5.5-7.12-4.09-7.12-6.29c0-0.9,0.83-1.38,1.75-1.38c1.28,0,1.96,0.64,2.83,0.64
					c0.88,0,1.43-0.75,1.43-1.57c0-1.68-2.99-2.13-4.17-2.13c-2.84,0-5.29,1.85-5.29,4.83c0,4.94,7.11,3.43,7.11,5.94
					C287.71,32.65,286.95,33.43,285.54,33.43z"/>
        <path d="M242.78,41.53c0-0.68-0.57-1.41-1.51-1.41c-1.02,0-1.51,0.59-1.7,1.54l-1.81,9.05h-0.05l-2.77-9.33
					c-0.23-0.77-0.88-1.26-1.66-1.26c-0.79,0-1.44,0.49-1.67,1.26l-2.77,9.33h-0.04l-1.81-9.05c-0.19-0.94-0.68-1.54-1.7-1.54
					c-0.94,0-1.51,0.72-1.51,1.41c0,0.3,0.02,0.45,0.09,0.73l2.71,11.63c0.21,0.9,0.92,1.66,2.11,1.66c1.04,0,1.85-0.68,2.11-1.56
					l2.47-8.22h0.05l2.47,8.22c0.26,0.88,1.07,1.56,2.11,1.56c1.2,0,1.9-0.76,2.12-1.66l2.7-11.63
					C242.76,41.98,242.78,41.83,242.78,41.53z"/>
        <path d="M251.2,41.77c-0.37-1.03-1.16-1.77-2.28-1.77c-1.1,0-1.92,0.79-2.29,1.77l-4.28,11.59c-0.04,0.11-0.15,0.37-0.15,0.7
					c0,0.85,0.72,1.49,1.57,1.49c0.87,0,1.32-0.46,1.54-1.12l0.64-1.98h5.92l0.64,2c0.21,0.64,0.66,1.11,1.55,1.11
					c0.79,0,1.47-0.57,1.47-1.41c0-0.15-0.04-0.44-0.17-0.79L251.2,41.77z M246.87,49.5l2.04-6.18h0.03l1.98,6.18H246.87z"/>
        <path d="M263.96,52.6h-3.79V41.91c0-1.07-0.69-1.66-1.6-1.66c-0.91,0-1.6,0.59-1.6,1.66V53.8c0,1.06,0.62,1.75,1.67,1.75h5.33
					c0.93,0,1.49-0.71,1.53-1.4C265.52,53.42,265.05,52.6,263.96,52.6z"/>
        <path d="M273.46,52.6h-3.79V41.91c0-1.07-0.68-1.66-1.6-1.66c-0.91,0-1.59,0.59-1.59,1.66V53.8c0,1.06,0.62,1.75,1.66,1.75h5.32
					c0.94,0,1.49-0.71,1.53-1.4C275.02,53.42,274.54,52.6,273.46,52.6z"/>
        <path d="M277.58,40.12c-0.92,0-1.6,0.59-1.6,1.66v12.1c0,1.06,0.68,1.66,1.6,1.66s1.6-0.6,1.6-1.66v-12.1
					C279.17,40.72,278.49,40.12,277.58,40.12z"/>
        <path d="M284.05,44.32c0-0.9,0.83-1.39,1.75-1.39c1.28,0,1.96,0.64,2.83,0.64c0.88,0,1.43-0.74,1.43-1.57
					c0-1.68-2.98-2.13-4.18-2.13c-2.83,0-5.28,1.85-5.28,4.83c0,4.95,7.11,3.43,7.11,5.95c0,1.04-0.76,1.83-2.17,1.83
					c-1.39,0-2.58-0.83-3.58-0.83c-0.87,0-1.43,0.68-1.43,1.51c0,2,3.54,2.39,5.18,2.39c2.94,0,5.46-1.9,5.46-4.94
					C291.17,45.11,284.05,46.51,284.05,44.32z"/>
        <path d="M140.09,40.15l-1.84-0.53c-3.18-0.91-5.27-1.54-5.27-3.61c0-1.5,1.29-2.51,2.81-2.9c0.77-0.19,1.49-0.24,2.2-0.24
					c3.32,0,5.32,1.15,6.59,1.92l0.45-0.19c0.16-1.83,0.21-2.02,0.42-3.8l-0.25-0.34c-0.92-0.34-3.58-1.35-7.36-1.35
					c-5.73,0-10.33,2.46-10.33,7.42c0,4.96,4.6,6.36,6.7,6.98l1.63,0.53c3.12,0.97,5.31,1.69,5.31,3.9c0,1.49-1.48,3.61-5.52,3.61
					c-3.93,0-6.19-1.64-7.11-2.31l-0.51,0.15c-0.1,1.92-0.1,2.16-0.31,4.04l0.25,0.44c0.26,0.09,0.52,0.19,0.77,0.28
					c1.94,0.73,4.24,1.21,7,1.21c1.84,0,5.47-0.14,8.18-2.31c2.1-1.59,2.86-3.76,2.86-5.68C146.79,42.27,142.14,40.78,140.09,40.15z
					"/>
        <path d="M164.12,29.12c-5.11,0-8.07,1.97-9.51,3.37c-3.42,3.22-3.53,7.95-3.53,9.78c0,1.59,0.05,6.5,3.53,9.83
					c1.64,1.6,4.55,3.23,9.15,3.23c3.58,0,6.6-0.82,8.84-2.94c1.7-1.59,2.77-3.47,3.33-5.83c0.36-1.44,0.47-3.04,0.47-4.67
					c-0.1-3.37-0.77-6.74-3.12-9.29C171.03,30.18,167.6,29.12,164.12,29.12z M169.64,48.48c-1.48,2.65-3.93,3.23-5.82,3.23
					c-1.03,0-2.1-0.19-3.02-0.63c-4.05-1.92-4.1-6.79-4.1-8.72c0-2.03,0.15-4.82,1.54-6.79c1.79-2.69,4.66-2.79,5.62-2.79
					c2.87,0,4.5,1.25,5.48,2.74c1.27,2.12,1.48,5.35,1.48,6.55C170.88,43.09,170.83,46.32,169.64,48.48z"/>
        <path d="M118.64,39.24c-1.69,0-3.04,1.36-3.04,3.04c0,1.68,1.36,3.04,3.04,3.04c1.68,0,3.04-1.36,3.04-3.04
					C121.68,40.6,120.32,39.24,118.64,39.24z"/>
        <path d="M51.62,21.12l-0.25-0.29c-4.09,0.14-4.76,0.14-9.05,0.14l-0.26,0.29c0.36,5.44,0.36,6.84,0.41,12.52
					c-2.25,0.05-4.5,0.1-6.8,0.1c-1.79,0-3.63-0.05-5.42-0.05l0.1-12.71l-0.26-0.29c-3.94,0.14-4.7,0.14-9.15,0.14l-0.31,0.29
					c0.26,4.96,0.57,10.89,0.57,22.83c0,4.33-0.11,6.69-0.21,10.74l0.25,0.29c3.73-0.15,4.65-0.2,9.15-0.15l0.26-0.29
					c-0.31-5.97-0.35-7.71-0.41-14.69c2.25-0.1,4.14-0.15,6.14-0.15c2.04,0,4.08,0.05,6.13,0.1c0.1,6.5,0.1,8.09-0.15,14.88
					l0.26,0.29c3.84-0.15,4.86-0.2,9.2-0.15l0.25-0.29c-0.41-8.1-0.56-16.14-0.56-24.23C51.53,27.08,51.58,24.82,51.62,21.12z"/>
        <path d="M74.32,29.3c-1.27-0.33-2.45-0.43-3.63-0.43c-8.03,0-13.35,4.96-13.35,13.3c0,2.27,0.41,4.62,1.22,6.31
					c2.97,6.5,9.92,7.08,13.61,7.08c4.24,0,6.08-0.73,8.79-1.73l0.31-0.39l0.36-5.44l-0.36-0.15c-1.94,0.97-4.25,2.07-7.98,2.07
					c-3.07,0-5.16-0.92-6.39-2.65c-0.77-1.01-0.92-1.96-1.12-2.93l16.52-0.29l0.31-0.33c-0.05-2.36-0.1-4.77-0.82-7.18
					C80,30.84,76.06,29.69,74.32,29.3z M65.78,39.22c0.16-1.49,0.51-3.52,2.46-4.67c0.61-0.38,1.33-0.53,2.04-0.53
					c1.69,0,2.71,0.81,3.27,1.68c0.72,1.06,0.76,2.21,0.76,3.32L65.78,39.22z"/>
        <path d="M102.85,39.22l-2.51-0.87c-1.74-0.58-3.12-1.11-3.12-2.45c0-0.58,0.41-2.17,3.58-2.17c3.12,0,5.11,1.25,6.39,2.03
					l0.46-0.15l0.51-5.25l-0.26-0.29c-2.4-0.62-4.5-1.21-7.82-1.21c-2.5,0-7.52,0.2-10.18,3.81c-0.67,0.87-1.38,2.31-1.38,4.24
					c0,5.16,4.24,6.7,6.65,7.56l1.94,0.67c1.38,0.44,3.63,1.16,3.63,2.89c0,1.21-1.18,2.5-4.04,2.5c-1.43,0-3.53-0.43-5.42-1.34
					c-0.87-0.43-1.28-0.78-2.05-1.35l-0.46,0.19c-0.1,2.5-0.15,3.04-0.35,5.45l0.25,0.43c2.51,0.87,4.65,1.64,8.39,1.64
					c3.89,0,11.56-0.67,12.47-7.56c0.05-0.39,0.05-0.73,0.05-1.06C109.6,41.63,105.67,40.23,102.85,39.22z"/>
			</g>
		</g>
	</g>
</g>
</svg>
